<?xml version="1.0" standalone="no"?>
<!DOCTYPE svg PUBLIC "-//W3C//DTD SVG 20010904//EN"
 "http://www.w3.org/TR/2001/REC-SVG-20010904/DTD/svg10.dtd">
<svg version="1.0" xmlns="http://www.w3.org/2000/svg"
 width="700.000000pt" height="700.000000pt" viewBox="0 0 700.000000 700.000000"
 preserveAspectRatio="xMidYMid meet">
<metadata>
Created by potrace 1.11, written by Peter Selinger 2001-2013
</metadata>
<g transform="translate(0.000000,700.000000) scale(0.100000,-0.100000)"
fill="#000000" stroke="none">
<path d="M0 3500 l0 -3500 3500 0 3500 0 0 3500 0 3500 -3500 0 -3500 0 0
-3500z m3725 3029 c887 -76 1662 -504 2194 -1209 632 -837 783 -1960 394
-2935 -242 -608 -666 -1116 -1222 -1463 -1212 -758 -2791 -562 -3786 470 -674
699 -971 1651 -814 2608 180 1097 973 2027 2029 2380 390 131 815 183 1205
149z"/>
<path d="M3310 6433 c-30 -2 -113 -10 -185 -19 -986 -119 -1850 -742 -2284
-1644 -140 -293 -220 -562 -268 -900 -24 -173 -24 -565 0 -740 49 -350 130
-616 282 -925 400 -814 1168 -1408 2050 -1584 284 -57 669 -72 938 -37 674 87
1261 378 1739 862 360 365 621 824 748 1317 69 270 92 451 92 737 0 490 -98
899 -320 1335 -528 1037 -1624 1665 -2792 1598z m302 -373 l57 -65 1 98 0 97
36 0 36 0 -7 -162 c-4 -90 -11 -167 -16 -173 -11 -11 -8 -14 -115 115 l-79 94
-5 -94 -5 -95 -34 -3 -34 -3 5 159 c3 88 9 165 13 172 8 14 30 -6 147 -140z
m-385 88 c91 -54 105 -188 29 -264 -109 -109 -291 -29 -289 128 2 131 145 206
260 136z m972 -43 c2 -2 -14 -74 -35 -160 -38 -153 -39 -155 -66 -155 -15 0
-29 4 -33 9 -4 8 52 257 70 310 4 9 14 11 33 6 15 -4 29 -8 31 -10z m-1476
-46 c144 -36 174 -224 50 -309 -71 -49 -180 -26 -230 49 -63 93 -22 219 82
256 49 17 47 17 98 4z m1742 -136 c26 -71 49 -129 50 -131 1 -1 17 36 35 83
18 47 37 88 41 91 4 2 19 -1 33 -8 31 -13 33 -4 -41 -185 -31 -73 -61 -133
-68 -133 -8 0 -33 55 -60 130 -27 72 -50 129 -52 127 -2 -2 -19 -42 -37 -88
-30 -74 -37 -84 -58 -81 -49 6 -49 6 69 290 7 17 19 32 26 32 8 0 34 -53 62
-127z m-2166 -167 l61 -114 54 29 54 30 16 -23 c9 -12 16 -25 16 -28 0 -8
-168 -95 -173 -90 -12 14 -147 275 -147 285 0 13 41 35 52 29 3 -2 34 -56 67
-118z m2611 50 c20 -13 42 -36 50 -51 13 -25 13 -28 -5 -41 -26 -19 -43 -17
-50 6 -14 44 -85 62 -85 22 0 -8 13 -36 29 -61 40 -63 44 -84 27 -124 -18 -44
-48 -61 -97 -54 -49 6 -93 38 -109 78 -12 28 -12 33 5 45 27 20 33 18 50 -16
18 -34 47 -53 69 -44 24 9 19 38 -14 97 -38 68 -38 100 -1 138 37 36 83 38
131 5z m-2900 -216 c40 -55 76 -102 81 -105 4 -3 27 8 50 25 23 16 47 30 53
30 15 0 40 -41 29 -49 -40 -34 -145 -101 -152 -97 -15 10 -181 246 -181 258 0
11 29 37 42 38 4 0 39 -45 78 -100z m3173 23 c39 -32 78 -63 85 -69 12 -8 12
-15 3 -32 -14 -27 -25 -27 -61 -2 l-27 19 -79 -99 c-44 -54 -86 -99 -95 -99
-17 -1 -39 18 -39 34 0 7 36 56 80 110 l80 99 -31 25 c-28 25 -29 27 -14 49 9
12 19 22 22 22 3 0 38 -26 76 -57z m-1533 7 c749 -57 1417 -510 1745 -1185
150 -306 215 -590 215 -932 0 -101 -6 -219 -16 -285 -94 -686 -512 -1280
-1126 -1602 -460 -241 -1003 -302 -1513 -171 -462 119 -877 397 -1166 782
-592 786 -565 1877 64 2630 371 444 901 720 1467 763 144 11 183 11 330 0z
m-1838 -221 c84 -33 157 -65 163 -70 6 -6 1 -17 -12 -31 -20 -19 -25 -20 -53
-8 -30 13 -33 12 -76 -31 -41 -40 -44 -47 -39 -79 5 -29 2 -40 -15 -55 -12
-11 -24 -15 -29 -9 -10 10 -111 313 -111 332 0 6 4 12 10 12 5 0 78 -27 162
-61z m3662 -47 c6 -10 -127 -335 -139 -338 -6 -2 -18 8 -28 21 -14 19 -15 28
-6 49 10 22 7 30 -32 76 -23 28 -48 49 -53 47 -46 -17 -56 -17 -75 2 -12 12
-21 24 -21 29 0 6 316 118 342 121 4 1 9 -2 12 -7z m-3963 -181 c16 -16 29
-38 29 -48 0 -15 6 -18 38 -15 34 3 42 -1 66 -29 22 -26 27 -39 22 -63 -6 -30
-65 -124 -91 -146 -10 -8 -42 12 -139 86 -69 54 -126 102 -126 108 0 6 18 33
39 60 65 82 113 96 162 47z m4189 -111 c0 -5 -134 -106 -204 -152 -6 -4 3 -25
23 -54 35 -48 35 -75 -2 -82 -16 -3 -120 133 -115 150 2 4 62 48 133 98 l130
91 18 -22 c9 -12 17 -25 17 -29z m178 -275 c11 -23 8 -26 -71 -69 -45 -24 -99
-52 -119 -62 l-37 -17 25 -48 c13 -27 24 -55 24 -63 0 -17 -38 -32 -50 -19
-18 18 -82 143 -78 153 4 14 257 149 279 150 9 0 21 -11 27 -25z m-4638 -145
c80 -18 149 -36 153 -40 8 -7 -11 -60 -22 -60 -3 0 -38 9 -76 20 -38 11 -74
20 -78 20 -5 0 21 -32 57 -72 82 -90 79 -98 -48 -98 l-91 0 73 -46 c62 -39 72
-49 66 -68 -3 -11 -10 -25 -14 -30 -11 -11 -285 168 -285 186 0 10 29 14 123
18 l122 5 -67 76 c-38 41 -74 82 -81 92 -15 18 -7 41 12 34 6 -2 76 -19 156
-37z m4660 -235 c74 -8 141 -15 148 -15 29 0 4 -33 -117 -147 -71 -68 -132
-123 -134 -123 -3 0 -10 13 -15 29 -9 25 -7 32 13 51 l23 21 -21 64 c-19 58
-23 64 -54 70 -29 5 -53 32 -53 61 0 8 73 4 210 -11z m-4821 -205 c70 -20 121
-90 121 -165 0 -110 -104 -193 -207 -166 -163 44 -181 251 -28 322 46 21 66
23 114 9z m5051 -74 c0 -2 9 -48 20 -102 11 -54 18 -104 16 -111 -3 -7 -16
-13 -30 -13 -24 0 -36 16 -36 51 0 24 -8 24 -147 -5 -119 -25 -133 -22 -133
21 0 13 2 23 4 23 4 0 197 38 234 46 21 4 23 9 17 44 -5 32 -3 39 12 43 25 6
43 8 43 3z m-5252 -402 l3 -41 126 -6 c69 -3 129 -10 134 -14 4 -4 5 -20 2
-35 l-5 -28 -107 6 c-58 3 -118 7 -133 9 -27 4 -28 2 -28 -35 0 -38 -2 -40
-30 -40 l-30 0 0 84 c0 46 3 98 6 115 6 27 11 32 33 29 23 -3 26 -8 29 -44z
m5312 -4 c0 -23 -5 -31 -22 -34 -45 -9 -290 -26 -299 -20 -5 3 -9 18 -9 34 0
28 2 29 63 34 106 10 140 13 205 14 l62 2 0 -30z m-118 -200 c133 -37 173
-205 69 -293 -47 -39 -102 -53 -151 -38 -166 50 -175 269 -13 326 47 17 49 17
95 5z m-4948 -132 c26 -28 28 -36 24 -90 -5 -67 -24 -94 -58 -83 -18 6 -21 12
-15 33 18 74 18 90 -4 97 -29 9 -39 0 -65 -58 -29 -66 -57 -91 -102 -91 -72 0
-118 98 -80 172 18 36 24 38 50 19 16 -12 17 -18 5 -56 -11 -36 -10 -44 3 -57
23 -23 44 -7 68 51 43 107 111 131 174 63z m12 -337 c89 -41 99 -169 17 -226
-27 -19 -234 -68 -244 -58 -4 5 -9 19 -11 33 -3 24 1 26 104 51 59 14 114 32
123 39 21 18 19 66 -5 90 -25 25 -24 25 -149 -5 -57 -14 -105 -24 -107 -22 -2
2 -7 17 -10 34 l-6 31 103 25 c128 31 134 31 185 8z m4877 -17 c90 -22 147
-41 147 -48 0 -7 -55 -43 -122 -81 l-122 -68 90 -21 c84 -20 89 -23 92 -49 2
-18 -2 -29 -12 -33 -25 -10 -316 66 -316 81 0 8 51 41 113 75 61 34 116 65
120 69 4 4 -30 16 -76 25 -46 10 -89 21 -96 25 -17 11 -3 61 18 61 9 0 82 -16
164 -36z m-4713 -389 c48 -78 45 -156 -10 -219 -40 -45 -79 -59 -143 -54 -96
8 -159 80 -159 181 0 59 10 72 44 57 21 -10 25 -18 24 -57 -1 -38 4 -49 32
-74 47 -42 93 -40 139 6 32 32 35 40 30 76 -3 26 -16 52 -33 70 -24 25 -26 32
-16 54 11 25 13 25 41 11 16 -9 39 -32 51 -51z m4478 13 c19 -19 14 -34 -19
-67 -32 -33 -35 -57 -7 -74 13 -8 24 -4 53 19 82 66 125 75 169 36 45 -41 40
-116 -13 -166 -51 -49 -95 -8 -47 43 29 30 34 68 11 77 -9 4 -31 -6 -51 -22
-59 -48 -88 -64 -111 -64 -103 0 -128 138 -37 209 31 24 36 25 52 9z m-4332
-569 c17 -19 17 -23 3 -47 -28 -50 -89 -37 -89 19 0 47 53 65 86 28z m4153 -3
c22 -26 9 -70 -23 -81 -24 -8 -31 -6 -47 14 -23 28 -24 45 -3 65 19 20 58 21
73 2z m-3954 -246 c27 -29 10 -74 -28 -78 -36 -4 -57 13 -57 49 0 47 53 65 85
29z m3749 -6 c33 -33 10 -84 -38 -84 -20 0 -46 28 -46 50 0 24 26 50 50 50 10
0 26 -7 34 -16z m-3520 -220 c19 -18 21 -55 4 -72 -28 -28 -88 -2 -88 38 0 10
7 26 16 34 8 9 24 16 34 16 10 0 26 -7 34 -16z m3292 -19 c15 -23 15 -27 0
-50 -27 -42 -86 -26 -86 23 0 55 56 72 86 27z m-3038 -171 c26 -18 29 -56 6
-78 -19 -20 -34 -20 -62 0 -28 20 -28 58 0 78 12 9 25 16 28 16 3 0 16 -7 28
-16z m2778 -19 c15 -23 15 -27 0 -50 -30 -45 -86 -28 -86 27 0 49 59 65 86 23z
m-2478 -183 c5 -53 -63 -69 -89 -21 -23 44 25 91 66 64 11 -7 21 -26 23 -43z
m2200 -1 c5 -30 -15 -51 -49 -51 -52 0 -64 71 -16 90 28 10 61 -9 65 -39z
m-1902 -96 c15 -23 15 -27 0 -50 -29 -44 -86 -28 -86 25 0 53 57 69 86 25z
m1585 15 c22 -12 26 -59 7 -78 -27 -27 -88 -3 -88 34 0 16 35 54 51 54 6 0 19
-5 30 -10z m-1280 -89 c20 -16 22 -23 14 -47 -8 -21 -18 -30 -38 -32 -52 -6
-76 41 -40 80 21 23 35 23 64 -1z m979 -1 c32 -32 24 -61 -21 -79 -56 -21 -95
50 -47 83 30 21 44 20 68 -4z m-662 -36 c30 -21 29 -59 -3 -80 -23 -15 -27
-15 -50 0 -32 21 -33 59 -3 80 12 9 25 16 28 16 3 0 16 -7 28 -16z m341 -16
c12 -32 2 -58 -26 -69 -45 -17 -80 21 -62 69 7 17 16 22 44 22 28 0 37 -5 44
-22z"/>
<path d="M3084 6092 c-36 -23 -59 -71 -50 -106 3 -14 17 -38 30 -53 20 -23 32
-28 70 -28 36 0 51 6 73 28 39 38 40 105 2 142 -34 35 -85 41 -125 17z"/>
<path d="M2644 5990 c-12 -4 -31 -21 -43 -36 -64 -82 34 -198 127 -150 38 19
54 47 54 91 0 43 -16 72 -52 90 -32 17 -54 18 -86 5z"/>
<path d="M3193 5504 c-1108 -171 -1865 -1189 -1707 -2294 102 -710 579 -1317
1246 -1586 244 -98 423 -134 703 -141 289 -7 483 23 743 116 546 195 1003 647
1206 1194 141 377 165 814 66 1202 -158 625 -616 1148 -1213 1385 -259 102
-466 140 -757 139 -114 -1 -233 -7 -287 -15z m1475 -714 c43 -26 88 -98 115
-185 19 -60 22 -92 21 -220 -2 -384 -107 -774 -303 -1127 -192 -344 -467 -588
-666 -590 -86 -1 -134 35 -182 137 -27 58 -28 65 -27 220 0 174 22 329 70 506
14 52 28 103 31 114 3 11 -241 -226 -543 -527 -356 -355 -558 -549 -576 -553
-53 -13 -98 39 -98 114 0 56 26 120 135 332 414 800 599 1221 599 1359 0 108
-45 153 -154 152 -293 -3 -824 -331 -1027 -634 -64 -96 -93 -171 -102 -268 -9
-87 -22 -117 -57 -130 -29 -11 -62 0 -89 30 -17 18 -20 36 -19 99 1 93 36 191
109 302 69 105 284 316 420 411 376 261 779 389 953 302 91 -45 143 -130 143
-233 1 -107 -74 -334 -216 -656 -65 -148 -271 -563 -333 -673 -23 -41 -42 -76
-42 -79 0 -3 37 30 83 73 45 42 204 191 352 329 297 278 402 384 549 553 54
62 106 117 116 122 52 28 111 -4 113 -60 0 -20 -30 -115 -71 -225 -125 -336
-174 -541 -175 -735 -1 -95 3 -123 20 -161 109 -243 522 221 718 806 76 227
115 443 117 651 2 149 -14 192 -102 275 -52 48 -60 61 -60 92 0 24 9 46 26 66
22 27 33 31 72 31 29 0 59 -8 80 -20z m-524 -2516 c19 -18 20 -28 6 -55 -10
-18 -28 -19 -658 -19 -491 0 -651 3 -660 12 -7 7 -12 21 -12 33 0 12 5 26 12
33 9 9 168 12 654 12 571 0 644 -2 658 -16z"/>
<path d="M1747 5315 l15 -46 29 27 29 28 -22 12 c-13 6 -33 15 -45 18 -22 7
-22 7 -6 -39z"/>
<path d="M5323 5248 c-40 -13 -40 -18 -8 -48 l25 -23 15 36 c22 53 23 52 -32
35z"/>
<path d="M1415 5104 l-24 -26 27 -24 27 -24 23 26 c26 30 27 37 6 58 -21 22
-31 20 -59 -10z"/>
<path d="M1520 5023 l-22 -28 29 -22 28 -23 22 27 c26 32 28 44 11 61 -20 20
-45 14 -68 -15z"/>
<path d="M5841 4344 c0 -5 6 -23 12 -41 l12 -32 37 35 38 34 -34 0 c-19 0 -41
3 -50 6 -9 3 -16 2 -15 -2z"/>
<path d="M986 4125 c-41 -22 -55 -44 -55 -90 -1 -95 105 -137 173 -68 46 46
30 129 -29 158 -41 19 -53 19 -89 0z"/>
<path d="M5994 3450 c-62 -25 -84 -115 -40 -163 83 -90 216 5 165 117 -12 25
-64 57 -91 55 -7 0 -23 -4 -34 -9z"/>
</g>
</svg>
