<?xml version="1.0" encoding="UTF-8"?>
<svg width="47px" height="48px" viewBox="0 0 47 48" version="1.1" xmlns="http://www.w3.org/2000/svg" xmlns:xlink="http://www.w3.org/1999/xlink">
    <title>Group 2</title>
    <g id="Page-1" stroke="none" stroke-width="1" fill="none" fill-rule="evenodd">
        <g id="WG-Splash" transform="translate(-663.000000, -719.000000)">
            <g id="Group-2" transform="translate(663.000000, 719.458647)">
                <circle id="Oval-Copy" fill="#FFFFFF" cx="23.5" cy="24.0413534" r="23.5"></circle>
                <g id="FB" transform="translate(18.000000, 10.541353)" fill="#01B5BA" fill-rule="nonzero">
                    <path d="M2.86208403,27 L7.6835126,27 C7.6835126,27 7.6835126,19.7534916 7.6835126,13.8754375 L11.2618162,13.8754375 L11.7013697,8.62561248 L7.86994117,8.62561248 L7.86994117,6.52655745 C7.86994117,5.50371654 8.49592332,5.26572448 8.93547689,5.26572448 C9.37503046,5.26572448 11.6402983,5.26572448 11.6402983,5.26572448 L11.6402983,0.766624446 L7.91574475,0.75 C3.78136975,0.75 2.84199475,4.10463818 2.84199475,6.25181661 L2.84199475,8.62473751 L0.451369745,8.62473751 L0.451369745,13.8745625 L2.86208403,13.8745625 C2.86208403,19.8243642 2.86208403,27 2.86208403,27 Z" id="Shape"></path>
                </g>
            </g>
        </g>
    </g>
</svg>