<?xml version="1.0" encoding="UTF-8"?>
<svg width="47px" height="48px" viewBox="0 0 47 48" version="1.1" xmlns="http://www.w3.org/2000/svg" xmlns:xlink="http://www.w3.org/1999/xlink">
    <title>Group 4</title>
    <defs>
        <polygon id="path-1" points="0 0.04725 26.1826714 0.04725 26.1826714 26.9999951 0 26.9999951"></polygon>
    </defs>
    <g id="Page-1" stroke="none" stroke-width="1" fill="none" fill-rule="evenodd">
        <g id="WG-Splash" transform="translate(-730.000000, -719.000000)">
            <g id="Group-4" transform="translate(730.000000, 719.458647)">
                <circle id="Oval" fill="#FFFFFF" cx="23.5" cy="24.0413534" r="23.5"></circle>
                <g id="Group-8" transform="translate(10.000000, 10.541353)">
                    <g id="Group-3" transform="translate(0.464266, 0.000000)">
                        <mask id="mask-2" fill="white">
                            <use xlink:href="#path-1"></use>
                        </mask>
                        <g id="Clip-2"></g>
                        <path d="M23.5486766,18.9706255 C23.5486766,21.9076092 21.2357633,24.2885495 18.3826934,24.2885495 L7.79998752,24.2885495 C4.94687012,24.2885495 2.63395677,21.9076092 2.63395677,18.9706255 L2.63395677,8.07661467 C2.63395677,5.13958207 4.94687012,2.75869076 7.79998752,2.75869076 L18.3826934,2.75869076 C21.2357633,2.75869076 23.5486766,5.13958207 23.5486766,8.07661467 L23.5486766,18.9706255 Z M18.3826934,0.0472451087 L7.79998752,0.0472451087 C3.49907199,0.0472451087 -1.90062112e-05,3.64920163 -1.90062112e-05,8.07661467 L-1.90062112e-05,18.9706255 C-1.90062112e-05,23.3980386 3.49907199,26.9999951 7.79998752,26.9999951 L18.3826934,26.9999951 C22.6836089,26.9999951 26.1826999,23.3980386 26.1826999,18.9706255 L26.1826999,8.07661467 C26.1826999,3.64920163 22.6835614,0.0472451087 18.3826934,0.0472451087 L18.3826934,0.0472451087 Z" id="Fill-1" fill="#01B5BA" mask="url(#mask-2)"></path>
                    </g>
                    <path d="M13.5785517,17.6244922 C11.2355561,17.6244922 9.33621694,15.7779598 9.33621694,13.5 C9.33621694,11.2220875 11.2356048,9.37550783 13.5785517,9.37550783 C15.9215474,9.37550783 17.8208865,11.2220875 17.8208865,13.5 C17.8208865,15.7779125 15.9214987,17.6244922 13.5785517,17.6244922 M13.5785517,6.75 C9.75025416,6.75 6.63569459,9.77804402 6.63569459,13.5 C6.63569459,17.2218613 9.75025416,20.25 13.5785517,20.25 C17.4068006,20.25 20.5214089,17.2219086 20.5214089,13.5 C20.5214089,9.77804402 17.4068006,6.75 13.5785517,6.75" id="Fill-4" fill="#01B5BA"></path>
                    <path d="M20.1356777,6 C20.7747755,6 21.2928375,6.50369693 21.2928375,7.125 C21.2928375,7.74633602 20.7747755,8.25 20.1356777,8.25 C19.4966137,8.25 18.9785517,7.74633602 18.9785517,7.125 C18.9785517,6.50369693 19.4966137,6 20.1356777,6" id="Fill-6" fill="#01B5BA"></path>
                </g>
            </g>
        </g>
    </g>
</svg>