<svg id="Layer_1" data-name="Layer 1" xmlns="http://www.w3.org/2000/svg" viewBox="0 0 498 498"><defs><style>.cls-1{fill:#00b4b9;}.cls-2{fill:#fff;}</style></defs><title>favicon</title><rect class="cls-1" width="498" height="498"/><path class="cls-2" d="M248.15,464.89C129.1,464.89,32.24,368,32.24,249S129.1,33.06,248.15,33.06,464.07,129.92,464.07,249,367.21,464.89,248.15,464.89m0-425.19C132.75,39.7,38.87,133.58,38.87,249s93.88,209.27,209.28,209.27S457.43,364.37,457.43,249,363.55,39.7,248.15,39.7"/><path class="cls-2" d="M248.15,399.94c-83.24,0-151-67.72-151-151s67.73-151,151-151,151,67.73,151,151-67.72,151-151,151m0-295.3c-79.58,0-144.33,64.75-144.33,144.34s64.75,144.33,144.33,144.33S392.48,328.56,392.48,249,327.74,104.64,248.15,104.64"/><path class="cls-2" d="M71.32,321.11a11.28,11.28,0,0,1-.25-8.6.62.62,0,0,1,.85-.39l2.71,1.07A.53.53,0,0,1,75,314a7.86,7.86,0,0,0,.16,5.47,7.71,7.71,0,0,0,14.2-6,7.91,7.91,0,0,0-3.7-4,.61.61,0,0,1-.32-.77L86.46,306a.62.62,0,0,1,.84-.32,11.39,11.39,0,0,1,6.08,6.2,12,12,0,1,1-22.06,9.21"/><path class="cls-2" d="M65.34,301.35a.65.65,0,0,1-.76-.47l-.71-3.06a.62.62,0,0,1,.47-.76L77.55,294a4.83,4.83,0,1,0-2.15-9.4l-13.25,3.08a.64.64,0,0,1-.76-.48l-.71-3.07a.65.65,0,0,1,.47-.75l13.44-3.13a9.24,9.24,0,0,1,4.19,18Z"/><path class="cls-2" d="M78.68,269.37l-2.15-1a.76.76,0,0,1-.31-1.1c.08-.17,1.83-3,1.67-5.15a2.77,2.77,0,0,0-2.78-2.82c-1.68.13-2.73,1.64-3.65,4.5-1,3.21-2.76,6.47-6.67,6.76-2.94.22-6.51-1.7-6.91-7a11.7,11.7,0,0,1,1.71-6.78.83.83,0,0,1,1.08-.28l2,1.11c.41.24.72.71.48,1.13s-1.6,2.92-1.47,4.74a2.65,2.65,0,0,0,2.54,2.73c1.55-.12,2.52-1.42,3.41-4.19,1-3.3,2.68-7.15,7-7.47,3.4-.26,6.77,2.44,7.12,7.1a10.66,10.66,0,0,1-2,7.48c-.27.32-.42.5-1,.24"/><path class="cls-2" d="M61.82,240.46l-.28,5.06a.64.64,0,0,1-.67.6L58.16,246a.64.64,0,0,1-.6-.67l.81-14.46a.63.63,0,0,1,.66-.6l2.72.15a.63.63,0,0,1,.59.67l-.28,5.06,18.57,1a.65.65,0,0,1,.6.66l-.17,3.08a.66.66,0,0,1-.67.59Z"/><path class="cls-2" d="M61.58,208.49a12,12,0,1,1,9.21,14.17,11.94,11.94,0,0,1-9.21-14.17m19.15,4.11a7.63,7.63,0,1,0-9,5.84,7.65,7.65,0,0,0,9-5.84"/><path class="cls-2" d="M69.59,182.13a.55.55,0,0,1-.22-.74l.2-.49a.61.61,0,0,1,.53-.39L87.37,180a.26.26,0,0,1,0-.09L75.88,167a.56.56,0,0,1-.09-.65l.21-.48a.56.56,0,0,1,.69-.36l22,5.17a.58.58,0,0,1,.47.85L98,174.29a.71.71,0,0,1-.7.38L85,171.53l0,.1,9.7,10.46a.55.55,0,0,1,.12.66l-.24.55a.58.58,0,0,1-.55.37l-14.3.28,0,.09,10.8,6.71a.64.64,0,0,1,.23.75l-1.17,2.74a.6.6,0,0,1-.95.28Z"/><path class="cls-2" d="M93.42,138.32a.62.62,0,0,1-.12-.88l4.63-6c2.41-3.12,6.37-3.93,9.13-1.81a6.32,6.32,0,0,1,2,6.11c1.52-1.05,4.5-2,6.92-.12,2.94,2.26,3.13,6.42.67,9.63l-4.9,6.37a.63.63,0,0,1-.88.12Zm12-.65a2.84,2.84,0,0,0-.63-4.08,2.7,2.7,0,0,0-4,.55L98.66,137l4.6,3.54Zm7.86,5.46a3,3,0,0,0-.57-4.21,3.21,3.21,0,0,0-4.35.93l-2.21,2.86,4.68,3.6Z"/><path class="cls-2" d="M124.56,134l-7.92-23.3a.59.59,0,0,1,.15-.65l.24-.23a.55.55,0,0,1,.66-.12l22.81,9.13a.58.58,0,0,1,.19,1l-2.09,2a1,1,0,0,1-1.16.18l-3.65-1.47-7.19,6.84,1.3,3.72a1,1,0,0,1-.24,1.15l-2.09,2a.59.59,0,0,1-1-.24m5.51-15-7.44-3-.07.07,2.68,7.53Z"/><path class="cls-2" d="M134.49,96.2a.63.63,0,0,1,.15-.88l2.49-1.77a.66.66,0,0,1,.88.15l10.77,15.18,6.9-4.9a.63.63,0,0,1,.88.15l1.57,2.22a.63.63,0,0,1-.15.88l-9.9,7a.62.62,0,0,1-.88-.14Z"/><path class="cls-2" d="M155.2,82.61a.63.63,0,0,1,.26-.85l2.7-1.43a.65.65,0,0,1,.85.26L167.74,97l7.47-4a.62.62,0,0,1,.85.27l1.28,2.4a.63.63,0,0,1-.26.85l-10.73,5.69a.63.63,0,0,1-.85-.26Z"/><path class="cls-2" d="M186.92,67.35a11.95,11.95,0,1,1-7.37,15.2,11.93,11.93,0,0,1,7.37-15.2m6.36,18.52a7.63,7.63,0,1,0-9.66-4.72,7.65,7.65,0,0,0,9.66,4.72"/><path class="cls-2" d="M221.34,59A11.94,11.94,0,1,1,211.28,72.6,11.92,11.92,0,0,1,221.34,59m2.82,19.36A7.63,7.63,0,1,0,215.55,72a7.63,7.63,0,0,0,8.61,6.42"/><path class="cls-2" d="M246.25,57.38a.63.63,0,0,1,.64-.58l.83,0L261,72h0l.47-13.69a.63.63,0,0,1,.65-.61l3.06.1a.65.65,0,0,1,.6.65l-.76,22.31a.63.63,0,0,1-.65.58l-.8,0L250.28,65.58h0l-.48,14.25a.63.63,0,0,1-.65.61l-3-.1a.65.65,0,0,1-.61-.65Z"/><path class="cls-2" d="M294.48,63.31a.66.66,0,0,1,.77-.46l3,.77a.66.66,0,0,1,.46.77l-5.43,21.3a.64.64,0,0,1-.76.45l-3-.76a.64.64,0,0,1-.45-.77Z"/><path class="cls-2" d="M312.42,68a.63.63,0,0,1,.81-.32L314,68l7.26,18.8h0l5.17-12.7a.65.65,0,0,1,.82-.35l2.83,1.16a.65.65,0,0,1,.35.82L322,96.41a.62.62,0,0,1-.81.32l-.74-.3-7.1-19.35h0L308,90.29a.65.65,0,0,1-.83.35l-2.79-1.14a.67.67,0,0,1-.35-.83Z"/><path class="cls-2" d="M332,98.34l2.09-1.14a.77.77,0,0,1,1.09.39c.09.17,1.37,3.24,3.21,4.36a2.77,2.77,0,0,0,3.91-.62c.88-1.44.26-3.17-1.54-5.59-2-2.7-3.64-6-1.6-9.37,1.53-2.52,5.18-4.3,9.69-1.56a11.73,11.73,0,0,1,4.52,5.34.82.82,0,0,1-.4,1l-2.06,1a.87.87,0,0,1-1.2-.27c-.14-.28-1.44-3-3-4a2.65,2.65,0,0,0-3.7.46c-.81,1.34-.31,2.88,1.42,5.22,2.08,2.77,4.25,6.35,2,10-1.78,2.92-5.94,4.08-9.94,1.65a10.76,10.76,0,0,1-4.9-6c-.09-.41-.15-.64.38-.94"/><path class="cls-2" d="M365.3,101.43l-3.95-3.18a.63.63,0,0,1-.1-.89L363,95.24a.62.62,0,0,1,.88-.1l11.31,9.11a.62.62,0,0,1,.09.88l-1.71,2.12a.63.63,0,0,1-.89.1l-3.95-3.19L357,118.67a.65.65,0,0,1-.89.09l-2.4-1.93a.65.65,0,0,1-.1-.89Z"/><path class="cls-2" d="M364.94,124.89l23.33-7.83a.61.61,0,0,1,.66.16l.23.24a.58.58,0,0,1,.12.66l-9.23,22.77a.59.59,0,0,1-1,.19l-2-2.1a1,1,0,0,1-.18-1.16l1.49-3.64L371.55,127l-3.73,1.27a1,1,0,0,1-1.14-.24l-2-2.1a.58.58,0,0,1,.24-1m15,5.57,3-7.42-.07-.08-7.55,2.65Z"/><path class="cls-2" d="M402.65,135a.63.63,0,0,1,.88.15l1.75,2.5a.66.66,0,0,1-.16.88l-15.23,10.68,4.86,6.93a.64.64,0,0,1-.16.88l-2.22,1.56a.62.62,0,0,1-.88-.16l-7-9.93a.64.64,0,0,1,.16-.88Z"/><path class="cls-2" d="M416.14,155.77a.62.62,0,0,1,.85.26l1.42,2.71a.66.66,0,0,1-.26.85l-16.5,8.64,3.92,7.5a.63.63,0,0,1-.26.85l-2.41,1.26a.63.63,0,0,1-.86-.26l-5.63-10.77a.63.63,0,0,1,.26-.85Z"/><path class="cls-2" d="M405.83,183.51,430.3,186a.56.56,0,0,1,.52.41l.11.31a.58.58,0,0,1-.16.66L413,204.32a.59.59,0,0,1-1-.25l-.93-2.74a.94.94,0,0,1,.31-1.12l2.86-2.7L411,188.13l-3.92-.38a1,1,0,0,1-.94-.7l-.94-2.72a.59.59,0,0,1,.64-.82m11.34,11.26,5.82-5.51,0-.09-8-.71Z"/><path class="cls-2" d="M433.06,210.78l-1-5a.63.63,0,0,1,.5-.74l2.67-.52a.62.62,0,0,1,.74.5l2.78,14.24a.64.64,0,0,1-.5.74l-2.67.52a.65.65,0,0,1-.75-.5l-1-5-18.28,3.56a.64.64,0,0,1-.73-.49l-.6-3a.66.66,0,0,1,.5-.74Z"/><path class="cls-2" d="M439.47,231.2a.65.65,0,0,1,.68.58l.24,3.07a.65.65,0,0,1-.57.68l-21.89,1.76a.64.64,0,0,1-.68-.58l-.25-3.07a.66.66,0,0,1,.58-.68Z"/><path class="cls-2" d="M440.91,260a11.94,11.94,0,1,1-11.27-12.57A11.91,11.91,0,0,1,440.91,260m-19.53-1.12a7.63,7.63,0,1,0,8-7.15,7.64,7.64,0,0,0-8,7.15"/><path class="cls-2" d="M437.54,284.81a.62.62,0,0,1,.43.75l-.19.81-17.51,9.94v0l13.31,3.24a.64.64,0,0,1,.47.76l-.72,3a.66.66,0,0,1-.76.47l-21.69-5.28a.62.62,0,0,1-.43-.75l.18-.77,18.07-9.88v0l-13.86-3.37a.62.62,0,0,1-.46-.76l.71-2.93a.67.67,0,0,1,.77-.47Z"/><path class="cls-2" d="M410.42,308.73l1.43,1.9a.76.76,0,0,1-.22,1.13c-.16.12-3,1.83-3.85,3.82a2.77,2.77,0,0,0,1.19,3.78c1.56.66,3.18-.21,5.3-2.34,2.38-2.39,5.43-4.49,9-3,2.72,1.15,5,4.49,3,9.36a11.73,11.73,0,0,1-4.63,5.26.83.83,0,0,1-1.09-.24l-1.25-1.9a.87.87,0,0,1,.08-1.23c.26-.18,2.77-1.86,3.47-3.54a2.65,2.65,0,0,0-1-3.6c-1.44-.6-2.9.12-4.95,2.17-2.45,2.47-5.66,5.15-9.61,3.49-3.15-1.33-4.91-5.28-3.1-9.6a10.67,10.67,0,0,1,5.22-5.72c.4-.16.61-.25,1,.23"/><path class="cls-2" d="M395.76,355.35a3.34,3.34,0,1,1,2.75-1.45l-.09.13a3.3,3.3,0,0,1-2.66,1.32"/><path class="cls-2" d="M259.34,432a3.32,3.32,0,0,1-.2-6.63l.36,3.3,0,3.33h-.2m-22.95,0c-.06,0-.28.06-.36,0a3.32,3.32,0,0,1-3.12-3.52,3.36,3.36,0,0,1,6.71.41,3.25,3.25,0,0,1-3.23,3.12m46-2.86a3.36,3.36,0,0,1-3.28-2.61,3.29,3.29,0,0,1,2.42-3.92l.35-.07A3.32,3.32,0,1,1,283,429l-.59-3.27L283,429a3.48,3.48,0,0,1-.64.07m-68.89-.1a3.92,3.92,0,0,1-.59-.05l-.33-.07a3.32,3.32,0,0,1,1.52-6.46,3.39,3.39,0,0,1,2.57,3.92,3.25,3.25,0,0,1-3.17,2.66m91.24-5.72a3.35,3.35,0,0,1-3.16-2.21,3.29,3.29,0,0,1,1.93-4.19l.33-.11a3.32,3.32,0,0,1,2,6.33l-1-3.16,1,3.18a3.37,3.37,0,0,1-1,.16m-113.62-.17a2.92,2.92,0,0,1-1-.15l-.34-.11a3.32,3.32,0,0,1,2.33-6.21,3.39,3.39,0,0,1,2.06,4.21,3.29,3.29,0,0,1-3.09,2.26m135-8.48a3.31,3.31,0,0,1-1.57-6.24l1.67,2.88,1.36,3a3.31,3.31,0,0,1-1.46.33m-156.44-.24a3.14,3.14,0,0,1-1.36-.31l-.27-.13a3.32,3.32,0,1,1,3.05-5.89,3.38,3.38,0,0,1,1.52,4.44,3.27,3.27,0,0,1-2.94,1.89m176.55-11.08a3.32,3.32,0,0,1-1.9-6l2,2.65,1.75,2.82a3.37,3.37,0,0,1-1.87.57m-196.68-.34a3.16,3.16,0,0,1-1.73-.51l-.23-.15a3.32,3.32,0,1,1,3.77-5.46,3.4,3.4,0,0,1,.95,4.62,3.34,3.34,0,0,1-2.76,1.5m215.19-13.46a3.32,3.32,0,0,1-2.19-5.81l2.32,2.38,2.06,2.6a3.33,3.33,0,0,1-2.19.83M131,389.05a3.21,3.21,0,0,1-2.06-.76s-.16-.13-.17-.15a3.32,3.32,0,0,1,4.38-5,3.38,3.38,0,0,1,.38,4.71,3.33,3.33,0,0,1-2.53,1.18m250.32-15.7a3.3,3.3,0,0,1-2.55-5.41l.25-.27a3.32,3.32,0,1,1,4.79,4.6l-2.4-2.3,2.38,2.32a3.4,3.4,0,0,1-2.47,1.06m-269.28-1.52,2.48-2.2L112,371.75a3.32,3.32,0,1,1,4.89-4.48l-2.34,2.36Z"/><path class="cls-2" d="M100.09,354.75a3.24,3.24,0,0,1-2.61-1.31l-.1-.12a3.32,3.32,0,0,1,5.4-3.86,3.33,3.33,0,0,1-2.69,5.29"/><path class="cls-2" d="M114.45,372.87a3.24,3.24,0,0,1-2.61-1.31l-.1-.12a3.32,3.32,0,0,1,5.4-3.86,3.33,3.33,0,0,1-2.69,5.29"/><path class="cls-2" d="M259.35,432a3.26,3.26,0,0,1-2.62-1.31l-.09-.13a3.32,3.32,0,1,1,4.69.78,3.36,3.36,0,0,1-2,.66"/><path class="cls-2" d="M326.08,414.82a3.25,3.25,0,0,1-2.61-1.3l-.09-.13a3.29,3.29,0,1,1,2.7,1.43"/><path class="cls-2" d="M346.21,403.29A3.24,3.24,0,0,1,343.6,402l-.1-.13a3.32,3.32,0,0,1,5.41-3.86,3.35,3.35,0,0,1-2.7,5.3"/><path class="cls-2" d="M364.72,389.48a3.26,3.26,0,0,1-2.61-1.31L362,388a3.27,3.27,0,1,1,2.7,1.44"/><path class="cls-2" d="M292.59,341.31H203.71a2.94,2.94,0,0,1,0-5.88h88.88a2.94,2.94,0,0,1,0,5.88"/><path class="cls-2" d="M170,197.78c-19.24,14.38-30.73,30.25-30.73,42.47,0,2.88-.52,9.59-5.31,9.59-3.18,0-6.38-2.47-6.38-8,0-15,13.39-33.84,35.82-50.27,20.84-15.27,44.79-25.14,61-25.14a18.64,18.64,0,0,1,19,18.69c0,14.45-22.57,64.88-42.74,100.32l.91.69c9.31-9.64,19.1-18.62,28.57-27.31,13.66-12.54,27.78-25.5,40.76-40.68l2.06-2.46c4.33-5.18,6.5-7.78,9.27-7.78,3.53,0,5.32,2,5.32,5.85,0,1.2-1.57,5.26-3.55,10.41-5.38,14-14.38,37.41-14.38,57.55,0,10.95,2.57,15.83,8.33,15.83,16.84,0,53.56-55.9,53.56-111.35,0-11-4.4-14.57-7.94-17.46-2.14-1.75-3.84-3.14-3.84-5.82,0-4.43,2.66-7.18,6.92-7.18,9.8,0,15.21,15.64,15.21,26.45A171.58,171.58,0,0,1,317,271.36c-13.81,22.36-31.36,36.81-44.7,36.81-10.08,0-14.67-11.9-14.67-23,0-8.14,2.08-30.51,8.52-47.69l-1-.6c-7.85,8.2-22.55,22.79-38.11,38.23-8.41,8.35-17.2,17.07-25.56,25.44-1.42,1.42-2.93,3-4.4,4.56-4.66,4.94-9.95,10.53-12.59,10.53-3.5,0-5.85-3.64-5.85-9.06,0-4.34,6.32-16.34,13-29,1.77-3.36,3.59-6.82,5.38-10.29,14.33-26.8,34.31-70,34.31-79.47,0-7.91-3.62-12.08-10.47-12.08-13,0-33,8.65-50.92,22.05"/></svg>